<?xml version="1.0" encoding="UTF-8"?>
<svg version="1.1" xmlns="http://www.w3.org/2000/svg" width="64" height="64">
<path d="M0 0 C0.66 0.66 1.32 1.32 2 2 C3.216875 2.0825 4.43375 2.165 5.6875 2.25 C9.1552408 3.02976621 9.97473551 3.964497 12.08203125 6.92578125 C15.78184035 13.5723654 17.71875633 19.35930774 17 27 C17.28181161 29.0079077 17.59256816 31.0137698 18 33 C17.2575 33.53625 16.515 34.0725 15.75 34.625 C12.88957427 36.87779977 12.88957427 36.87779977 11.0625 39.9375 C7.01528986 45.94699384 1.92709274 49.13393507 -5 51 C-8.34563151 51.42349334 -11.63093748 51.46557552 -15 51.4375 C-16.27617188 51.4674707 -16.27617188 51.4674707 -17.578125 51.49804688 C-23.4701566 51.49352845 -28.12709647 50.43841341 -33 47 C-35.94290528 42.87993261 -36.53725514 38.54105678 -37.390625 33.65625 C-38.03801053 30.83431309 -39.02332007 28.39731328 -40.1875 25.75 C-41.88403167 21.78099233 -42.34156129 19.24827743 -41 15 C-39.02 14.67 -37.04 14.34 -35 14 C-34.773125 12.7625 -34.54625 11.525 -34.3125 10.25 C-33.53514831 7.21028684 -33.06000965 6.06530462 -30.875 3.6875 C-20.93435149 -2.14722847 -11.18544746 -1.77546785 0 0 Z " fill="#4E1133" transform="translate(43,7)"/>
<path d="M0 0 C-1.796875 3.90625 -1.796875 3.90625 -3.625 4.75 C-7.08085668 5.11377439 -10.52698087 5 -14 5 C-16.35529281 5.41731018 -16.35529281 5.41731018 -18 6 C-15.50425449 6 -13.38268756 5.76805819 -10.9375 5.375 C-9.638125 5.25125 -8.33875 5.1275 -7 5 C-6.34 5.66 -5.68 6.32 -5 7 C-8.63 8.65 -12.26 10.3 -16 12 C-16 11.01 -16 10.02 -16 9 C-18.83066388 13.24599582 -18.53360364 17.01438988 -18 22 C-16.61451845 25.02286884 -15.33128575 26.66871425 -13 29 C-13.33 29.33 -13.66 29.66 -14 30 C-10.38675085 29.55756133 -7.04638022 29.01433571 -3.5625 27.9375 C-0.59977655 27.15783593 1.22364408 26.91767067 4.1875 27 C7.65997164 27 9.18438276 26.87707816 12 25 C12.125 30.75 12.125 30.75 11 33 C10.34 33 9.68 33 9 33 C8.67 33.99 8.34 34.98 8 36 C8.99 36 9.98 36 11 36 C11.2475 35.38125 11.495 34.7625 11.75 34.125 C13.23250486 31.60474173 14.28387064 30.98768341 17 30 C17.99 30 18.98 30 20 30 C20.40173878 33.28086674 20.59097303 35.90862451 18.98046875 38.8828125 C15.22323614 43.66474491 10.81974669 46.31693737 5 48 C0.99752184 48.32807198 -2.15647249 47.99647009 -6 47 C-6.99 47.495 -6.99 47.495 -8 48 C-14.08323808 48.59639589 -17.14264048 47.42872436 -22 44 C-23.5 42 -23.5 42 -24 40 C-23.66666667 38.66666667 -23.33333333 37.33333333 -23 36 C-23.6295597 34.64874991 -24.30635815 33.31950112 -25 32 C-25.92258199 29.84458721 -26.81632189 27.67669716 -27.6875 25.5 C-28.14511719 24.3759375 -28.60273438 23.251875 -29.07421875 22.09375 C-29.97607296 19.07995873 -30.15527614 17.85668282 -29 15 C-27.02 15 -25.04 15 -23 15 C-22.67 14.01 -22.34 13.02 -22 12 C-22.33 11.34 -22.66 10.68 -23 10 C-20.37451678 4.97733646 -17.78988887 2.79871565 -12.52734375 0.6796875 C-8.34722504 -0.44448662 -4.28843019 -0.32230373 0 0 Z " fill="#531233" transform="translate(33,8)"/>
<path d="M0 0 C-1.796875 3.90625 -1.796875 3.90625 -3.625 4.75 C-7.08085668 5.11377439 -10.52698087 5 -14 5 C-16.35529281 5.41731018 -16.35529281 5.41731018 -18 6 C-15.50425449 6 -13.38268756 5.76805819 -10.9375 5.375 C-9.638125 5.25125 -8.33875 5.1275 -7 5 C-6.34 5.66 -5.68 6.32 -5 7 C-8.63 8.65 -12.26 10.3 -16 12 C-16 11.01 -16 10.02 -16 9 C-18.83066388 13.24599582 -18.53360364 17.01438988 -18 22 C-16.61451845 25.02286884 -15.33128575 26.66871425 -13 29 C-13.33 29.33 -13.66 29.66 -14 30 C-10.3339929 29.55110117 -6.92474472 28.97794242 -3.375 27.9375 C-0.36261345 27.10072596 1.90750499 26.81257606 5 27 C2.04137338 28.97241775 0.02597181 29.64276875 -3.375 30.5 C-7.05299827 31.43216485 -10.50212937 32.52453457 -14 34 C-13.34 34.99 -12.68 35.98 -12 37 C-12 37.99 -12 38.98 -12 40 C-17.24749594 39.62517886 -20.48305372 37.81660445 -24 34 C-25.46511873 31.58073281 -26.46546529 29.08779303 -27.4375 26.4375 C-27.70498047 25.77814453 -27.97246094 25.11878906 -28.24804688 24.43945312 C-29.57424918 20.99409726 -30.50508824 18.4999981 -29 15 C-27.02 15 -25.04 15 -23 15 C-22.67 14.01 -22.34 13.02 -22 12 C-22.33 11.34 -22.66 10.68 -23 10 C-20.37451678 4.97733646 -17.78988887 2.79871565 -12.52734375 0.6796875 C-8.34722504 -0.44448662 -4.28843019 -0.32230373 0 0 Z " fill="#761937" transform="translate(33,8)"/>
<path d="M0 0 C0 0.66 0 1.32 0 2 C-0.61488281 2.21914062 -1.22976562 2.43828125 -1.86328125 2.6640625 C-7.34928841 4.78934088 -7.34928841 4.78934088 -11.0625 9.25 C-11.371875 10.1575 -11.68125 11.065 -12 12 C-11.34 11.67 -10.68 11.34 -10 11 C-10.66 14.3 -11.32 17.6 -12 21 C-12.99 19.68 -13.98 18.36 -15 17 C-16.32 17 -17.64 17 -19 17 C-18.32135052 21.07952215 -17.06525314 24.71420337 -15.5625 28.5625 C-15.13066406 29.67753906 -14.69882813 30.79257812 -14.25390625 31.94140625 C-13.26062179 34.3642777 -12.21714851 36.68458726 -11 39 C-11.66 38.67 -12.32 38.34 -13 38 C-12.52153935 42.30614589 -11.34073619 44.24880549 -8 47 C-3.20309397 48.59896868 1.17020413 48.2521693 6 47 C6.66 47.33 7.32 47.66 8 48 C14.63226349 48.82903294 19.43994855 46.55494579 25 43 C27.67787905 40.25680682 28.79648526 38.61054421 30 35 C30.845625 34.525625 31.69125 34.05125 32.5625 33.5625 C33.366875 33.046875 34.17125 32.53125 35 32 C35 30.68 35 29.36 35 28 C34.34 27.67 33.68 27.34 33 27 C33.99 26.34 34.98 25.68 36 25 C37.45089193 27.30435777 38.00798044 28.68876297 37.9375 31.4375 C36.67144704 34.89804476 34.69380282 36.48187997 32 39 C30.93634063 40.3532562 29.87392442 41.7074901 28.8125 43.0625 C23.46407463 49.05681572 18.1256903 50.88532384 10.19140625 51.375 C8.4196761 51.43132337 6.64741678 51.47281917 4.875 51.5 C3.60426636 51.52803711 3.60426636 51.52803711 2.30786133 51.55664062 C-3.52602019 51.49746539 -8.17043486 50.39169892 -13 47 C-15.94290528 42.87993261 -16.53725514 38.54105678 -17.390625 33.65625 C-18.03801053 30.83431309 -19.02332007 28.39731328 -20.1875 25.75 C-21.88403167 21.78099233 -22.34156129 19.24827743 -21 15 C-19.02 14.67 -17.04 14.34 -15 14 C-14.773125 12.7625 -14.54625 11.525 -14.3125 10.25 C-13.25563644 6.03743115 -11.78821504 4.29054863 -8 2 C-5.01498036 0.57856208 -3.32269384 0 0 0 Z " fill="#431033" transform="translate(23,7)"/>
<path d="M0 0 C1.875 1.5 1.875 1.5 3 3 C2.67 3.66 2.34 4.32 2 5 C-0.32156597 5.40729228 -2.6568787 5.74438677 -5 6 C-4.24783203 6.48919922 -4.24783203 6.48919922 -3.48046875 6.98828125 C-1.14918578 10.15611959 -1.94489809 13.46268421 -2.3125 17.1875 C-2.4043457 18.31188477 -2.4043457 18.31188477 -2.49804688 19.45898438 C-2.65108611 21.30722745 -2.82366879 23.1538335 -3 25 C-5.64 25 -8.28 25 -11 25 C-10.41795291 21.58980101 -9.29078344 19.99513774 -6.875 17.5625 C-4.27323311 14.81393765 -4.27323311 14.81393765 -4.125 11.0625 C-4.41375 10.381875 -4.7025 9.70125 -5 9 C-5.99 9 -6.98 9 -8 9 C-7.01 10.485 -7.01 10.485 -6 12 C-6.375 14.6875 -6.375 14.6875 -7 17 C-7.99 15.68 -8.98 14.36 -10 13 C-9.67 14.65 -9.34 16.3 -9 18 C-10.32 18.33 -11.64 18.66 -13 19 C-12.34 18.67 -11.68 18.34 -11 18 C-11 17.34 -11 16.68 -11 16 C-11.99 16 -12.98 16 -14 16 C-14 15.01 -14 14.02 -14 13 C-13.34 13 -12.68 13 -12 13 C-12 12.34 -12 11.68 -12 11 C-12.99 11.495 -12.99 11.495 -14 12 C-14 13.98 -14 15.96 -14 18 C-14.66 18 -15.32 18 -16 18 C-15.34 18.99 -14.68 19.98 -14 21 C-15.32 21.33 -16.64 21.66 -18 22 C-16.02 22 -14.04 22 -12 22 C-12.33 23.32 -12.66 24.64 -13 26 C-16.04718178 25.66142425 -17.7747603 25.16892978 -20.25 23.3125 C-22.38689127 20.48875082 -22.84705707 18.51768728 -23 15 C-22.34 14.34 -21.68 13.68 -21 13 C-20.62875 12.13375 -20.2575 11.2675 -19.875 10.375 C-18 8 -18 8 -16.02734375 7.67578125 C-14.01535274 7.68642671 -12.00529404 7.83563164 -10 8 C-10.33 6.68 -10.66 5.36 -11 4 C-7.31943567 0.53593946 -5.09258268 -0.77495823 0 0 Z " fill="#821935" transform="translate(42,9)"/>
<path d="M0 0 C2.29296875 0.14453125 2.29296875 0.14453125 5 1 C6.80078125 3.51171875 6.80078125 3.51171875 8.3125 6.6875 C8.82425781 7.72261719 9.33601563 8.75773437 9.86328125 9.82421875 C11.06123134 13.17106902 11.3815062 15.4772609 11 19 C7.84690378 23.08047746 4.95967428 24.73124612 0 26 C-0.22281874 24.08496326 -0.42771076 22.16783494 -0.625 20.25 C-0.74101563 19.18265625 -0.85703125 18.1153125 -0.9765625 17.015625 C-1.00122282 13.842664 -0.40945208 12.73081341 1 10 C1.02853647 7.39877587 1.02853647 7.39877587 0.625 4.75 C0.51414063 3.85796875 0.40328125 2.9659375 0.2890625 2.046875 C0.19367187 1.37140625 0.09828125 0.6959375 0 0 Z " fill="#AD1F32" transform="translate(47,12)"/>
<path d="M0 0 C-1.796875 3.90625 -1.796875 3.90625 -3.625 4.75 C-7.08085668 5.11377439 -10.52698087 5 -14 5 C-16.35529281 5.41731018 -16.35529281 5.41731018 -18 6 C-15.50425449 6 -13.38268756 5.76805819 -10.9375 5.375 C-9.638125 5.25125 -8.33875 5.1275 -7 5 C-6.34 5.66 -5.68 6.32 -5 7 C-10.445 9.475 -10.445 9.475 -16 12 C-16 11.01 -16 10.02 -16 9 C-18.83066388 13.24599582 -18.53360364 17.01438988 -18 22 C-16.61451845 25.02286884 -15.33128575 26.66871425 -13 29 C-15.76939575 28.70327903 -17.0620126 27.9500454 -19.25 26.1875 C-21.93409698 21.29860908 -21.31357996 16.46151764 -21 11 C-21.99 11.495 -21.99 11.495 -23 12 C-21.75854982 7.03419926 -20.33329746 4.75755293 -16 2 C-10.74896299 -0.44234279 -5.66751156 -0.20161108 0 0 Z " fill="#D92A3E" transform="translate(33,8)"/>
<path d="M0 0 C2.475 0.495 2.475 0.495 5 1 C5.7109375 3.2421875 5.7109375 3.2421875 6 6 C4.6015625 8.1328125 4.6015625 8.1328125 2.625 10.125 C-0.3291693 13.14188169 -0.3291693 13.14188169 -2 17 C-1.34 17 -0.68 17 0 17 C0 17.66 0 18.32 0 19 C-1.55966218 19.508783 -3.12289241 20.00663469 -4.6875 20.5 C-5.55761719 20.7784375 -6.42773438 21.056875 -7.32421875 21.34375 C-9.99391677 21.99850805 -12.26396684 22.11831495 -15 22 C-14.67 21.34 -14.34 20.68 -14 20 C-11.4375 19.375 -11.4375 19.375 -9 19 C-9.804375 18.21625 -10.60875 17.4325 -11.4375 16.625 C-14.98007968 12.99601594 -14.98007968 12.99601594 -15.0625 8.875 C-15.041875 7.92625 -15.02125 6.9775 -15 6 C-14.34 6 -13.68 6 -13 6 C-12.67 4.68 -12.34 3.36 -12 2 C-11.67 2.99 -11.34 3.98 -11 5 C-11.99 6.485 -11.99 6.485 -13 8 C-13.00082535 11.57756686 -13.00082535 11.57756686 -12 15 C-9.58076223 16.83528382 -6.94919597 17.36802944 -4 18 C-4.33 17.01 -4.66 16.02 -5 15 C-6.65 14.67 -8.3 14.34 -10 14 C-8.68 13.34 -7.36 12.68 -6 12 C-6.99 11.34 -7.98 10.68 -9 10 C-9.1875 7.375 -9.1875 7.375 -9 5 C-8.01 6.485 -8.01 6.485 -7 8 C-6.67 8.33 -6.34 8.66 -6 9 C-6 7.35 -6 5.7 -6 4 C-5.01 3.67 -4.02 3.34 -3 3 C-3 3.66 -3 4.32 -3 5 C-3.66 5 -4.32 5 -5 5 C-5 5.99 -5 6.98 -5 8 C-4.01 8 -3.02 8 -2 8 C-1.67 8.66 -1.34 9.32 -1 10 C-1.33 8.02 -1.66 6.04 -2 4 C1 5 1 5 2 6 C1.49396008 3.83125748 1.00016187 2.00032373 0 0 Z " fill="#501133" transform="translate(33,17)"/>
<path d="M0 0 C0.66 0 1.32 0 2 0 C2.40173878 3.28086674 2.59097303 5.90862451 0.98046875 8.8828125 C-3.63627105 14.75866316 -9.35800218 17.50616979 -16.6875 18.5 C-20.80202509 17.87893961 -22.88527882 16.7525443 -26 14 C-27.375 10.75 -27.375 10.75 -28 8 C-25.74482775 9.04704426 -24.08485927 9.91514073 -22.3125 11.6875 C-18.55168022 13.82201933 -15.0888988 12.99712917 -11 12 C-6.56298964 10.32950717 -3.66681668 9.00022502 -1 5 C-0.61500109 3.34450469 -0.27206865 1.6777567 0 0 Z " fill="#EA3548" transform="translate(51,38)"/>
<path d="M0 0 C0.125 5.75 0.125 5.75 -1 8 C-1.66 8 -2.32 8 -3 8 C-3.33 8.99 -3.66 9.98 -4 11 C-8.43028188 12.65049717 -12.29050618 13.22973141 -17 13 C-17 12.67 -17 12.34 -17 12 C-18.65 11.67 -20.3 11.34 -22 11 C-21 8 -21 8 -18 6.4375 C-15.14048102 5.29958833 -12.32723932 4.60294786 -9.3125 4 C-6.17706779 3.36970869 -2.56239548 0 0 0 Z " fill="#911C37" transform="translate(45,33)"/>
<path d="M0 0 C0.3125 2.1875 0.3125 2.1875 0 5 C-4.26534437 10.64126191 -10.41033199 13.37871131 -17.25 14.5625 C-20.99269347 13.79694906 -22.42642353 11.72470932 -25 9 C-23.95199219 8.86722656 -22.90398438 8.73445313 -21.82421875 8.59765625 C-20.44529222 8.41942765 -19.06638707 8.24103359 -17.6875 8.0625 C-16.99720703 7.97548828 -16.30691406 7.88847656 -15.59570312 7.79882812 C-12.59857712 7.40789865 -9.87549881 6.9584996 -7 6 C-6.690625 5.360625 -6.38125 4.72125 -6.0625 4.0625 C-4.80183971 1.61533591 -2.91541097 0 0 0 Z " fill="#AF1F32" transform="translate(51,38)"/>
<path d="M0 0 C1.98 0 3.96 0 6 0 C6.08636719 0.64066406 6.17273438 1.28132813 6.26171875 1.94140625 C7.28816012 8.26014165 8.92267439 12.06429005 13 17 C8.58110387 15.64978174 6.65654657 13.73884332 4 10 C6.25776716 15.19664844 8.18203981 18.74787687 13 22 C13.763125 22.5775 14.52625 23.155 15.3125 23.75 C16.1478125 24.36875 16.1478125 24.36875 17 25 C11.75250406 24.62517886 8.51694628 22.81660445 5 19 C3.53488127 16.58073281 2.53453471 14.08779303 1.5625 11.4375 C1.29501953 10.77814453 1.02753906 10.11878906 0.75195312 9.43945312 C-0.57424918 5.99409726 -1.50508824 3.4999981 0 0 Z " fill="#E32A3E" transform="translate(4,23)"/>
<path d="M0 0 C0.66 0.33 1.32 0.66 2 1 C2 1.33 2 1.66 2 2 C2.99 1.67 3.98 1.34 5 1 C4.34 2.98 3.68 4.96 3 7 C2.34 7 1.68 7 1 7 C2.17200539 13.1796648 3.66768274 16.43966604 8 21 C3.72384683 20.83553257 1.64219154 20.64219154 -1.4375 17.5625 C-3.43340371 13.01183954 -3.89867817 8.90629705 -3 4 C-1.47265625 1.6953125 -1.47265625 1.6953125 0 0 Z " fill="#A91E32" transform="translate(17,16)"/>
<path d="M0 0 C1.2065625 0.8971875 1.2065625 0.8971875 2.4375 1.8125 C5.77018734 4.0793637 9.16820237 5.09109993 13.046875 6.09375 C15.54803548 7.25428846 16.02934951 8.48043916 17 11 C16 12 16 12 12.875 12.3125 C8.00439148 11.91970899 5.97176644 10.80359984 2 8 C-0.1518868 5.00607054 0 3.86092651 0 0 Z " fill="#AB1E32" transform="translate(9,44)"/>
<path d="M0 0 C5.875 0.875 5.875 0.875 7 2 C7.76160395 7.94051083 5.34956876 12.69249199 3 18 C2.01 18 1.02 18 0 18 C0.08378906 16.95199219 0.16757812 15.90398438 0.25390625 14.82421875 C0.35708794 13.44533619 0.45993506 12.06642857 0.5625 10.6875 C0.61857422 9.99720703 0.67464844 9.30691406 0.73242188 8.59570312 C0.96581505 5.37487726 1.03224218 3.09672655 0 0 Z " fill="#E1283D" transform="translate(40,15)"/>
<path d="M0 0 C-2.38457948 1.58971965 -4.6304124 2.86741593 -7.1875 4.125 C-7.90292969 4.47820313 -8.61835938 4.83140625 -9.35546875 5.1953125 C-9.89816406 5.46085937 -10.44085938 5.72640625 -11 6 C-11 5.01 -11 4.02 -11 3 C-13.83066388 7.24599582 -13.53360364 11.01438988 -13 16 C-11.61451845 19.02286884 -10.33128575 20.66871425 -8 23 C-10.80972581 22.69895795 -12.05669289 21.95275592 -14.25 20.125 C-16.84822539 15.48531181 -16.77437509 11.20161046 -16 6 C-14.2087612 2.7492333 -12.83510107 1.49654658 -9.6875 -0.375 C-6.22718021 -1.17972553 -3.45870348 -0.67817715 0 0 Z " fill="#DA273C" transform="translate(28,14)"/>
<path d="M0 0 C4.75 0.75 4.75 0.75 7 3 C6.98252073 5.75589777 6.86136729 8.38786676 6.625 11.125 C6.56828125 11.87910156 6.5115625 12.63320313 6.453125 13.41015625 C6.3115535 15.27418096 6.15700041 17.13721137 6 19 C3.36 19 0.72 19 -2 19 C-1.41795291 15.58980101 -0.29078344 13.99513774 2.125 11.5625 C4.72676689 8.81393765 4.72676689 8.81393765 4.875 5.0625 C4.58625 4.381875 4.2975 3.70125 4 3 C2.68 2.67 1.36 2.34 0 2 C0 1.34 0 0.68 0 0 Z " fill="#D9273C" transform="translate(33,15)"/>
<path d="M0 0 C0.33 0.99 0.66 1.98 1 3 C0.36191406 3.26554687 -0.27617188 3.53109375 -0.93359375 3.8046875 C-1.75988281 4.15789063 -2.58617188 4.51109375 -3.4375 4.875 C-4.67306641 5.39707031 -4.67306641 5.39707031 -5.93359375 5.9296875 C-8.15746715 6.8244937 -8.15746715 6.8244937 -9 9 C-13.09194801 10.41644354 -16.66708088 11.26260116 -21 11 C-20 8 -20 8 -17 6.4375 C-14.14048102 5.29958833 -11.32723932 4.60294786 -8.3125 4 C-4.87596692 3.30800187 -2.59565876 2.48280403 0 0 Z " fill="#C12236" transform="translate(44,33)"/>
<path d="M0 0 C2.32421875 0.2109375 2.32421875 0.2109375 5 1 C8.9643307 6.10958179 10.69282319 11.62602663 10 18 C6.3460966 14.0851035 4.70472373 10.06774068 2.9296875 5.109375 C2.19333015 2.83079221 2.19333015 2.83079221 0 2 C0 1.34 0 0.68 0 0 Z " fill="#E92A3D" transform="translate(47,12)"/>
<path d="M0 0 C1.875 1.5 1.875 1.5 3 3 C2.67 3.66 2.34 4.32 2 5 C-0.94140625 5.4140625 -0.94140625 5.4140625 -4.5625 5.625 C-5.76003906 5.69976563 -6.95757812 5.77453125 -8.19140625 5.8515625 C-9.58166016 5.92503906 -9.58166016 5.92503906 -11 6 C-8.66339867 0.60784308 -5.78127861 -0.60221652 0 0 Z " fill="#B52035" transform="translate(42,9)"/>
<path d="M0 0 C1.98 0 3.96 0 6 0 C6.08636719 0.64066406 6.17273438 1.28132813 6.26171875 1.94140625 C7.28816012 8.26014165 8.92267439 12.06429005 13 17 C9.53570262 16.03769517 8.08975951 15.10721275 5.75 12.3125 C3.87651894 8.766268 3.31787998 5.97349976 3 2 C2.34 2 1.68 2 1 2 C0.34 2.66 -0.32 3.32 -1 4 C-0.67 2.68 -0.34 1.36 0 0 Z " fill="#C94B5E" transform="translate(4,23)"/>
<path d="M0 0 C0.33 0 0.66 0 1 0 C1.66 2.97 2.32 5.94 3 9 C4.98 9 6.96 9 9 9 C8.67 10.32 8.34 11.64 8 13 C4.95281822 12.66142425 3.2252397 12.16892978 0.75 10.3125 C-1.38689127 7.48875082 -1.84705707 5.51768728 -2 2 C-1.34 1.34 -0.68 0.68 0 0 Z " fill="#711634" transform="translate(21,22)"/>
<path d="M0 0 C0.99 0.33 1.98 0.66 3 1 C2.01 1.33 1.02 1.66 0 2 C0 1.34 0 0.68 0 0 Z M-2 3 C-1.01 3.33 -0.02 3.66 1 4 C1.875 5.875 1.875 5.875 2 8 C0.75 9.75 0.75 9.75 -1 11 C-1.99 11 -2.98 11 -4 11 C-4.33 9.02 -4.66 7.04 -5 5 C-4.01 4.34 -3.02 3.68 -2 3 Z " fill="#561233" transform="translate(57,31)"/>
<path d="M0 0 C1.98 0.495 1.98 0.495 4 1 C3.66666667 3.33333333 3.33333333 5.66666667 3 8 C2.855625 9.258125 2.71125 10.51625 2.5625 11.8125 C2 15 2 15 0 17 C-0.33 16.67 -0.66 16.34 -1 16 C-0.909084 13.29891496 -0.76259234 10.63069689 -0.5625 7.9375 C-0.51029297 7.17888672 -0.45808594 6.42027344 -0.40429688 5.63867188 C-0.27424165 3.75878278 -0.13771962 1.87934315 0 0 Z " fill="#A61E32" transform="translate(41,17)"/>
<path d="M0 0 C2 1 2 1 2.875 3.375 C4.22377526 6.52214228 4.95501554 7.43846951 8 9 C10.99092476 9.53206434 13.96943709 9.81220871 17 10 C16.67 10.66 16.34 11.32 16 12 C9.87720257 12.4998202 6.89246242 11.45350289 2 8 C-0.1518868 5.00607054 0 3.86092651 0 0 Z " fill="#C8243A" transform="translate(9,44)"/>
<path d="M0 0 C0.66 0.33 1.32 0.66 2 1 C-0.17424117 3.50037734 -1.73045798 4.43628586 -5 5 C-5.0825 5.61875 -5.165 6.2375 -5.25 6.875 C-6 9 -6 9 -8.0625 10.25 C-8.701875 10.4975 -9.34125 10.745 -10 11 C-8.76141604 6.04566415 -7.27241667 3.81354269 -3 1 C-2.01 0.67 -1.02 0.34 0 0 Z " fill="#BE596C" transform="translate(20,9)"/>
<path d="M0 0 C1.65206447 0.92647536 3.2964997 1.86656574 4.9375 2.8125 C5.85402344 3.33457031 6.77054688 3.85664062 7.71484375 4.39453125 C10 6 10 6 11 9 C6.02639643 7.72768281 3.32703078 5.91415386 0 2 C0 1.34 0 0.68 0 0 Z " fill="#AF1F33" transform="translate(10,38)"/>
<path d="M0 0 C0.33 0 0.66 0 1 0 C1.10957031 0.59167969 1.21914062 1.18335937 1.33203125 1.79296875 C2.47678814 7.49813927 3.78543255 11.78543255 8 16 C5.14973668 15.69461464 3.94834492 14.95551924 1.75 13.0625 C-0.73023506 8.72208865 -0.34166406 4.88769414 0 0 Z " fill="#E92A3D" transform="translate(12,21)"/>
<path d="M0 0 C0 2.31 0 4.62 0 7 C-1.65 7 -3.3 7 -5 7 C-4.53479806 4.30182875 -3.4249099 0 0 0 Z " fill="#A11D32" transform="translate(39,27)"/>
<path d="M0 0 C1.875 1.5 1.875 1.5 3 3 C2.67 3.66 2.34 4.32 2 5 C1.01 4.34 0.02 3.68 -1 3 C-3.33199388 2.92094936 -5.66832622 2.91201231 -8 3 C-8 2.34 -8 1.68 -8 1 C-5.20129973 -0.39935013 -3.09501208 -0.25265405 0 0 Z " fill="#E83B4D" transform="translate(42,9)"/>
<path d="M0 0 C0.33 0.99 0.66 1.98 1 3 C-1 5 -1 5 -2.9453125 5.1953125 C-4.96354167 5.13020833 -6.98177083 5.06510417 -9 5 C-7.694761 2.38952199 -6.64173426 2.31933577 -3.9375 1.375 C-3.20402344 1.11460938 -2.47054687 0.85421875 -1.71484375 0.5859375 C-1.14894531 0.39257812 -0.58304688 0.19921875 0 0 Z " fill="#AB1E32" transform="translate(44,36)"/>
<path d="M0 0 C0.33 0.99 0.66 1.98 1 3 C-3.22949995 5.41685712 -6.12335991 6.34833144 -11 6 C-10.484375 5.7525 -9.96875 5.505 -9.4375 5.25 C-6.22815849 3.60418384 -3.12414336 1.8023904 0 0 Z " fill="#E4293D" transform="translate(44,33)"/>
<path d="M0 0 C2.97 0.33 5.94 0.66 9 1 C8.67 2.32 8.34 3.64 8 5 C4.62537285 4.45276317 2.91765 3.9451 0 2 C0 1.34 0 0.68 0 0 Z " fill="#A21D32" transform="translate(21,30)"/>
<path d="M0 0 C2.01822917 0.06510417 4.03645833 0.13020833 6.0546875 0.1953125 C6.0546875 0.5253125 6.0546875 0.8553125 6.0546875 1.1953125 C4.3840625 1.5046875 4.3840625 1.5046875 2.6796875 1.8203125 C-1.21130445 2.81159551 -1.21130445 2.81159551 -2.3828125 6.3203125 C-2.5684375 7.2690625 -2.7540625 8.2178125 -2.9453125 9.1953125 C-3.2753125 9.1953125 -3.6053125 9.1953125 -3.9453125 9.1953125 C-4.0703125 5.8203125 -4.0703125 5.8203125 -3.9453125 2.1953125 C-1.9453125 0.1953125 -1.9453125 0.1953125 0 0 Z " fill="#D3263B" transform="translate(25.9453125,16.8046875)"/>
<path d="M0 0 C2.01822917 0.06510417 4.03645833 0.13020833 6.0546875 0.1953125 C5.0646875 1.6803125 5.0646875 1.6803125 4.0546875 3.1953125 C1.4146875 2.8653125 -1.2253125 2.5353125 -3.9453125 2.1953125 C-1.9453125 0.1953125 -1.9453125 0.1953125 0 0 Z " fill="#A51E32" transform="translate(25.9453125,9.8046875)"/>
<path d="M0 0 C0.66 0 1.32 0 2 0 C2.33 1.32 2.66 2.64 3 4 C1.02 4.99 1.02 4.99 -1 6 C-1.042721 4.33388095 -1.04063832 2.66617115 -1 1 C-0.67 0.67 -0.34 0.34 0 0 Z " fill="#B92136" transform="translate(56,35)"/>
<path d="M0 0 C0.33 0 0.66 0 1 0 C1.103125 0.928125 1.20625 1.85625 1.3125 2.8125 C2.0070192 6.03254358 2.47740939 7.02579865 5 9 C3.35 8.67 1.7 8.34 0 8 C-1.09658936 4.71023192 -0.79953138 3.28696233 0 0 Z " fill="#A21D32" transform="translate(23,21)"/>
</svg>
